<svg width="1018" height="1199" viewBox="0 0 1018 1199" fill="none" xmlns="http://www.w3.org/2000/svg">
<path d="M145.091 622.414C125 334.5 145.091 207 145.091 207C-32.9817 377.994 -74.7714 773.291 178.297 1023.75C431.365 1274.2 818.071 1240.01 1018 1023.75L914.358 920.144C546.076 1230.95 165.182 910.328 145.091 622.414Z" fill="white"/>
<path d="M898 597C898 762.685 763.685 897 598 897C432.315 897 298 762.685 298 597C298 431.315 432.315 297 598 297C763.685 297 898 431.315 898 597ZM448 597C448 679.843 515.157 747 598 747C680.843 747 748 679.843 748 597C748 514.157 680.843 447 598 447C515.157 447 448 514.157 448 597Z" fill="white"/>
<path d="M444 192V340C353.419 413.332 323.426 473.246 298 604V102C302.245 8.79343 764.463 -97.3935 1015.5 173L913 275.5C765.5 111.5 444 132.5 444 192Z" fill="white"/>
</svg>
