<svg width="325" height="83" viewBox="0 0 325 83" fill="none" xmlns="http://www.w3.org/2000/svg">
<path d="M46.1 0.5C46.1 0.5 52.8 14.2 51.6 19.9C51.6 19.9 69.2 25.6 71.1 35C71.1 34.9 80.7 22.3 46.1 0.5V0.5ZM39.3 21C41 24.6 41.8 28.5 42.8 32.5L32.8 28.7C33.7 22.6 27.8 13.4 27.8 13.4L39.3 21ZM21.5 30.4C22.6 33.3 23.9 37 24.5 40.2L15.5 38C16.4 31.9 10.7 24.6 10.7 24.6L21.5 30.4V30.4Z" fill="white"/>
<path d="M41.2 15.8C41.2 15.8 81.5 44.1 84.2 55.1C86.2 63.4 80.4 71 80.4 71C80.4 71 77.3 49.4 0.100006 82.2C7.90001 73.5 12.2 62.3 11 50.3C10.5 45.4 9.30001 40.7 7.20001 36.5L25.3 46C25.3 46.3 25.3 46.6 25.4 46.9C26.1 54.2 25.6 61.4 23.9 68C27.6 60.2 29.4 51.3 28.5 42.1C28 36.5 26.6 31.2 24.4 26.4L43.7 39.3C43.8 39.9 43.8 40.6 43.9 41.2C44.7 49.3 43.9 57.2 41.8 64.4C46.3 56 48.6 46.2 47.6 36.1C46.9 28.7 44.7 21.9 41.2 15.8V15.8ZM90.4 51.8C90.4 63.4 100 71.5 112.2 71C119.5 70.7 123.8 68 125.3 67.3V57.3H123.8C122.4 63.4 118.7 68.5 112.3 68.5C104.4 68.5 98.3 60.8 98.3 51.8C98.3 42.8 104.5 35.1 112.3 35.1C118.7 35.1 122.4 40.1 123.8 46.3H125.3V36.3C123.8 35.6 119.5 33 112.2 32.6C100 32.1 90.4 40.2 90.4 51.8ZM147.9 32.6C137.2 32.6 128.9 41.2 128.9 51.9C128.9 62.5 137.2 71.2 147.9 71.2C158.6 71.2 166.9 62.6 166.9 51.9C166.9 41.2 158.6 32.6 147.9 32.6ZM147.9 68.8C141.2 68.8 136.7 60.9 136.7 51.8C136.7 42.8 141.2 34.8 147.9 34.8C154.6 34.8 159.1 42.7 159.1 51.8C159.1 60.8 154.6 68.8 147.9 68.8ZM210.5 40.5C210.5 37.4 213.7 34.9 217 34.8C220.6 34.8 224.2 36.4 226.1 43.4H227.1V35C225.6 34.5 222 32.6 216.9 32.6C210.7 32.6 204.5 36.4 204.5 43.5C204.5 56.2 221.9 53.8 221.9 62.3C221.9 66.6 219.3 68.6 215.3 68.6C211.4 68.6 206.9 65.4 205.4 59H204.1V68.2C205.7 68.7 209.8 71.1 215.1 71.1C224.3 71.1 228.8 65 228.8 59.5C228.9 45.9 210.5 50 210.5 40.5V40.5ZM279.7 37.2C279.7 36.4 280.2 35.7 280.8 35.3L283.2 34V33.4H268.9V34L271.3 35.3C272 35.7 272.4 36.4 272.4 37.2V66.5C272.4 67.3 271.9 68 271.3 68.4L268.9 69.7V70.3H283.2V69.7L280.8 68.4C280.1 68 279.7 67.3 279.7 66.5V37.2ZM167.2 33.4V34L169.6 35.3C170.3 35.7 170.7 36.4 170.7 37.2V66.5C170.7 67.3 170.2 68 169.6 68.4L167.2 69.7V70.3H181.5V69.7L179.1 68.4C178.4 68 178 67.3 178 66.5V37.2C178 36.7 178.2 36.3 178.4 35.9C178.6 35.6 178.9 35.5 179.3 35.5H183.9C186.7 35.5 189.7 38.8 189.7 42.9V45C189.7 49.1 187 51.9 183.9 51.9H181.1C181.1 51.9 190.1 67.4 191.5 69.1C193.5 71.6 200.1 74.9 205.2 73.8C200.2 71.1 195.5 62.5 191.6 55.3C189.5 55 188.1 54.3 187.2 53.7C195.1 53.7 197.1 47.2 197.1 44C197.1 35.3 191 33.5 184.1 33.5H167.2V33.4V33.4ZM286.2 33.4V34L288.6 35.3C289.3 35.7 289.7 36.4 289.7 37.2V66.5C289.7 67.3 289.2 68 288.6 68.4L286.2 69.7V70.3H300.5V69.7L298.1 68.4C297.4 68 297 67.3 297 66.5V37.2C297 36.7 297.2 36.3 297.4 35.9C297.6 35.6 297.9 35.5 298.3 35.5H302.9C305.7 35.5 308.7 38.8 308.7 42.9V45C308.7 49.1 306 51.9 302.9 51.9H300.1C300.1 51.9 309.1 67.4 310.5 69.1C312.5 71.6 319.1 74.9 324.2 73.8C319.2 71.1 314.5 62.5 310.6 55.3C308.5 55 307.1 54.3 306.2 53.7C314.1 53.7 316.1 47.2 316.1 44C316.1 35.3 310 33.5 303.1 33.5H286.2V33.4V33.4ZM264.6 68.4C264.1 68.1 263.8 67.7 263.6 67.3L250 33.4H245.6L232 67.3C231.8 67.8 231.5 68.2 231 68.4L228.6 69.7V70.3H239.6V69.7L237.5 68.6C236.8 68.2 236.3 67.5 236.3 66.6C236.3 66.3 236.4 66 236.5 65.8L239.5 58.4H252.3L255.3 65.8C255.4 66 255.4 66.3 255.4 66.5C255.4 67.2 255.1 67.8 254.6 68.2C254.5 68.3 254.4 68.3 254.3 68.4L251.9 69.7V70.3H267V69.7L264.6 68.4V68.4ZM240.4 55.7L245.7 42.5L251 55.7H240.4V55.7Z" fill="white"/>
</svg>
