<svg width="398" height="87" viewBox="0 0 398 87" fill="none" xmlns="http://www.w3.org/2000/svg">
<path d="M217.765 0H220.143C221.798 0.635569 223.389 1.51599 224.831 2.51362C225.293 4.42293 226.102 6.45467 225.403 8.40826C224.807 8.94745 223.998 9.16886 223.28 9.49967C223.365 10.2525 223.49 11 223.609 11.7476C224.966 11.6356 226.283 11.2866 227.616 11.0339C227.8 10.2577 227.845 9.41371 228.348 8.7547C228.457 9.28087 228.544 9.81225 228.614 10.3462C229.327 10.7526 230.018 11.3282 230.904 11.2371C236.491 11.2423 242.08 11.2214 247.665 11.2397C248.279 11.1928 248.572 11.831 248.995 12.1592C249.008 10.9974 249.003 9.83569 249.056 8.67395C249.221 8.67916 249.551 8.68437 249.716 8.68698C249.75 9.70805 249.639 10.7552 249.929 11.7502C250.24 11.8205 250.559 11.8414 250.881 11.8804C250.897 12.279 250.91 12.6775 250.934 13.0787C252.65 13.1281 254.385 13.2401 256.087 12.9536C257.231 12.7843 258.391 12.8989 259.546 12.9015C259.564 13.3001 259.602 13.696 259.673 14.0919C258.247 14.1935 256.806 14.2873 255.388 14.0554C253.116 13.7846 250.846 14.256 248.577 14.131C248.5 14.4331 248.428 14.7353 248.356 15.0375C246.175 15.0609 243.993 15.0244 241.814 15.0349C241.091 15.0166 240.295 15.1703 239.838 15.7668C239.197 16.5508 238.42 17.2203 237.803 18.0225C237.603 19.4943 238.191 20.9217 238.529 22.3335C238.015 22.5158 237.499 22.6877 236.994 22.8753C236.475 24.4668 236.68 26.5037 235.193 27.6186C234.371 28.2229 233.644 28.9757 232.705 29.4055C232.022 29.7076 231.287 29.3925 230.601 29.2935C228.039 28.9132 225.916 27.3711 223.628 26.3084C223.479 26.9153 223.312 27.5144 223.144 28.1161C223.838 28.5563 224.735 28.9314 224.964 29.7962C225.315 31.0621 225.022 32.3906 224.972 33.6799C224.862 34.8625 224.828 36.0529 224.714 37.2355C224.602 38.3842 223.923 39.3714 223.226 40.2648C222.575 40.1086 221.936 39.9236 221.292 39.7569C220.598 41.2156 221.175 43.0285 222.319 44.1147C225.293 47.2822 226.906 51.3587 228.417 55.331C228.675 56.1697 229.555 56.6672 229.704 57.5502C229.954 58.488 230.308 59.4283 230.226 60.4129C230.111 62.1399 229.984 63.8669 229.805 65.5886C229.683 66.8519 229.204 68.1127 229.486 69.389C229.696 70.4283 229.827 71.5275 229.438 72.546C228.914 73.825 228.92 75.2237 228.912 76.5808C228.936 77.4743 228.986 78.4563 229.619 79.1648C230.369 80.0687 231.101 81.0064 231.998 81.7774C233.107 82.4885 234.634 82.4937 235.547 83.5226C235.834 84.0852 235.629 84.7416 235.621 85.3434C232.74 85.7705 229.726 85.8018 226.927 84.9214C225.347 84.4186 223.604 85.2808 222.093 84.4317C222.176 82.663 222.612 80.936 223.25 79.2846C223.514 78.0525 223.226 76.7762 223.2 75.5285C223.181 74.4501 222.614 73.4968 222.396 72.4601C221.771 70.2356 221.593 67.9199 221.486 65.6225C221.348 64.4946 222.325 63.6428 222.364 62.541C222.569 61.5642 222.418 60.5614 221.8 59.7539C220.728 59.7226 219.284 59.9987 218.682 58.8709C217.427 57.0527 216.206 55.2085 214.953 53.3904C214.516 52.6063 213.468 52.7913 212.75 52.4475C212.109 51.8692 211.789 51.0513 211.39 50.3141C211.156 51.1581 210.837 52.0046 210.199 52.6428C209.193 53.6326 208.831 55.008 208.31 56.2635C207.943 57.1699 207.613 58.0998 207.48 59.0688C207.339 59.8008 207.307 60.6578 206.636 61.137C205.652 61.8664 205.301 63.0958 204.402 63.8981C203.731 64.5233 203.321 65.375 203.101 66.2424C203.029 67.0265 203.26 67.8209 203.058 68.5945C202.694 70.0116 201.896 71.2619 201.31 72.5929C200.895 73.528 200.68 74.5361 200.225 75.4556C199.922 76.0989 199.145 76.3073 198.719 76.8465C197.485 78.9251 197.091 81.431 197.533 83.7883C197.886 84.7234 198.144 85.7028 197.926 86.7083C197.168 86.8098 196.415 86.9323 195.654 87H193.303C192.691 86.875 192.06 86.7812 191.501 86.4999C191.084 85.2209 191.153 83.8195 191.528 82.538C192.079 80.6104 192.579 78.6699 193.076 76.7319C193.412 75.7812 192.616 74.9294 192.688 73.9787C192.608 72.5773 193.494 71.4207 194.135 70.2512C194.736 69.2119 194.524 67.959 194.941 66.8624C195.886 64.4816 197.671 62.5436 198.735 60.2201C199.062 59.2746 198.708 58.2692 198.772 57.295C198.852 55.4482 199.225 53.6248 199.549 51.8067C199.658 51.106 199.89 50.3662 199.613 49.676C199.318 48.8528 199.11 47.9776 199.227 47.0998C199.35 46.2923 198.857 45.4901 199.166 44.7008C199.328 44.0314 199.956 43.6537 200.459 43.2369C200.549 40.4863 199.528 37.7825 199.956 35.0396C200.446 34.4457 201.233 34.2322 201.917 33.9326C200.914 33.7294 199.911 33.5237 198.913 33.3075C198.873 32.1978 199.028 31.0986 199.264 30.015C199.632 28.3245 199.429 26.5767 199.703 24.8757C199.746 24.4434 200.227 24.2975 200.608 24.2819C201.518 24.2167 202.436 24.1751 203.329 23.9641C203.063 21.8151 202.843 19.6219 203.337 17.4834C203.816 14.9593 204.971 12.4014 207.134 10.8385C208.624 9.85392 210.776 9.27305 212.332 10.4478C212.46 10.3619 212.715 10.1925 212.843 10.1092C211.938 7.7206 212.138 4.95952 213.575 2.80796C214.503 1.34147 216.131 0.507934 217.765 0V0ZM232.373 16.4336C232.293 17.0588 232.096 17.6787 231.479 17.9783C232.293 17.9262 233.118 17.9288 233.921 17.7569C233.902 17.2984 233.886 16.8426 233.868 16.3841C233.365 16.3946 232.868 16.4102 232.373 16.4336V16.4336ZM230.686 18.1997C230.617 18.2882 230.476 18.4601 230.407 18.5487C230.534 19.3953 231.181 20.0881 231.612 20.8227C232.24 19.9579 232.876 19.0931 233.474 18.2075C232.546 18.1658 231.612 18.1059 230.686 18.1997V18.1997ZM2.15224 47.428C3.19777 46.6388 4.54391 46.3861 5.83685 46.4226C10.1892 46.4538 14.5389 46.4096 18.8886 46.4434C21.557 46.4434 23.8635 48.6809 24.0444 51.2623C17.9921 51.3274 11.9344 51.2284 5.88208 51.3066C5.86346 55.2398 5.86612 59.1704 5.88208 63.101C11.9211 63.1792 17.9628 63.1063 24.0045 63.1349C23.9886 65.7788 21.5783 68.0606 18.894 68.0658C14.6374 68.1153 10.3781 68.058 6.11885 68.0918C4.83389 68.1153 3.47444 67.9746 2.38901 67.2348C1.17322 66.4977 0.454923 65.2292 0 63.9398V50.4418C0.481527 49.3061 1.09341 48.1522 2.15224 47.428V47.428ZM31.2301 46.5163C31.7196 46.4356 32.2171 46.4304 32.7119 46.4252C37.2452 46.4434 41.7758 46.4252 46.3064 46.433C48.4799 46.3991 50.555 47.8422 51.2707 49.8401C51.6165 50.7257 51.5872 51.6869 51.5846 52.6168C51.5633 56.0968 51.5899 59.5768 51.5739 63.0542C51.5899 65.7736 49.0519 68.1413 46.2904 68.0762C41.5896 68.0866 36.8887 68.0866 32.1905 68.0762C29.429 68.1465 26.8857 65.7736 26.907 63.0542C26.899 59.2225 26.907 55.3909 26.9043 51.5566C26.8564 49.1446 28.8065 46.8993 31.2301 46.5163ZM32.2809 51.132C32.2916 55.1955 32.3022 59.2564 32.2756 63.3198C33.5739 63.4579 34.8775 63.3798 36.181 63.3928C39.5225 63.3459 42.8692 63.4918 46.2053 63.3198C46.1787 59.2564 46.1894 55.1955 46.2 51.132C41.5603 51.1138 36.9206 51.1138 32.2809 51.132ZM55.6895 46.3887C57.3549 46.5059 59.0549 47.178 60.0419 48.5481C60.691 49.4207 61.0661 50.4886 61.0821 51.5696C61.1194 55.5029 61.0475 59.4361 61.114 63.3693C65.7271 63.3902 70.3482 63.4475 74.9613 63.3407C74.9772 57.7039 74.8974 52.0645 74.9985 46.4304C76.773 46.4304 78.5501 46.433 80.3272 46.4278C80.415 51.442 80.3325 56.4588 80.3671 61.4731C80.3618 62.64 80.4496 63.8669 79.9362 64.9583C79.1247 66.8363 77.1055 68.1101 75.0224 68.0762C70.6781 68.097 66.3337 68.0684 61.9893 68.0892C61.2045 68.084 60.4064 68.0944 59.6402 67.9095C57.8577 67.4719 56.3653 66.0523 55.8784 64.3149C55.6257 63.4787 55.6683 62.5957 55.6656 61.7335C55.6922 56.6177 55.6416 51.5045 55.6895 46.3887V46.3887ZM84.8791 46.3991C87.9359 46.2428 91.1709 47.066 93.4056 49.2019C97.178 52.7184 101.001 56.1801 104.781 59.6914C105.14 60.0274 105.532 60.3269 105.931 60.6187C106.069 57.4408 105.912 54.2526 106.005 51.0721C106.221 48.4465 108.697 46.3653 111.363 46.3965C111.387 53.6014 111.347 60.8062 111.384 68.0085C109.817 68.1439 108.242 68.0814 106.676 68.0762C106.13 68.1491 105.782 67.7011 105.415 67.3937C101.155 63.4032 96.8721 59.4387 92.5995 55.4612C91.8253 54.7345 91.0645 53.9947 90.2318 53.3357C90.1626 58.2431 90.2424 63.1505 90.1919 68.058C88.4147 68.0996 86.6376 68.0996 84.8605 68.058C84.8472 60.8401 84.8126 53.617 84.8791 46.3991V46.3991ZM115.705 46.8602C116.78 46.3236 118.019 46.4356 119.187 46.4278C125.492 46.4408 131.797 46.4252 138.1 46.4356C138.089 47.7224 137.562 48.9909 136.637 49.9052C135.753 50.7439 134.5 51.1268 133.287 51.1216C131.593 51.1372 129.901 51.1086 128.206 51.119C128.102 56.7558 128.185 62.3925 128.166 68.0293C126.357 68.1049 124.535 68.1465 122.728 68.0085C122.723 62.3769 122.803 56.7454 122.691 51.1164C119.464 51.1034 116.237 51.1633 113.01 51.0904C113.103 49.3608 114.066 47.6156 115.705 46.8602V46.8602ZM139.981 46.4304C147.142 46.4486 154.304 46.4069 161.466 46.4512C161.354 47.5765 161.003 48.7044 160.242 49.577C159.38 50.5798 158.026 51.1086 156.701 51.119C152.923 51.1398 149.148 51.0982 145.371 51.1346C145.387 52.3771 145.384 53.6196 145.376 54.8621C149.899 54.8855 154.421 54.8256 158.944 54.8907C158.954 57.2325 157.055 59.5169 154.597 59.6289C151.54 59.6888 148.481 59.6236 145.424 59.6523C145.371 60.8922 145.371 62.1347 145.429 63.3745C150.784 63.4162 156.14 63.3876 161.495 63.385C161.519 64.9088 160.726 66.4117 159.471 67.3026C158.518 67.9746 157.305 68.1153 156.161 68.0892C150.766 68.0501 145.368 68.1309 139.973 68.0501C139.975 60.8427 139.957 53.6378 139.981 46.4304V46.4304ZM164.722 46.4304C169.319 46.433 173.914 46.433 178.511 46.433C180.394 46.4434 182.323 46.334 184.154 46.8576C185.329 47.1884 186.46 47.8787 187.024 48.9753C188.014 50.8169 187.867 52.9658 187.812 54.9767C187.708 56.2843 187.639 57.7586 186.646 58.7563C185.779 59.7617 184.569 60.3973 183.305 60.7958C185.532 63.4996 187.947 66.0523 190.214 68.7248C188.256 68.7404 186.3 68.7326 184.345 68.7352C183.574 68.7508 182.728 68.6284 182.193 68.0267C181.134 66.8884 180.211 65.6355 179.203 64.4529C177.106 61.8221 174.837 59.3163 172.844 56.6073C175.358 56.5422 177.872 56.649 180.386 56.5656C181.102 56.5083 182.102 56.3598 182.257 55.5185C182.475 54.3958 182.501 53.2054 182.235 52.0906C181.98 51.2154 180.873 51.1919 180.115 51.132C176.808 51.1008 173.504 51.1398 170.2 51.1112C170.064 56.7375 170.152 62.3691 170.157 67.9954C168.348 68.17 166.526 68.0762 164.712 68.0501C164.717 60.8427 164.696 53.6378 164.722 46.4304V46.4304Z" fill="white"/>
<path d="M238.978 49.8427C239.699 47.85 241.769 46.4017 243.937 46.4356C248.021 46.4226 252.107 46.4434 256.191 46.4278C257.375 46.4278 258.615 46.3496 259.724 46.8393C261.485 47.5478 262.759 49.2331 262.943 51.0877C256.683 51.1607 250.421 51.1112 244.158 51.1112C244.041 52.338 244.081 53.5701 244.124 54.7996C248.848 54.8725 253.573 54.7891 258.298 54.836C260.817 54.8777 263.132 56.9121 263.342 59.3892C263.411 60.6968 263.403 62.0148 263.345 63.325C263.198 65.8413 260.9 68.0111 258.325 68.0632C253.802 68.1153 249.279 68.0579 244.757 68.0892C243.466 68.1257 242.11 67.9616 241.03 67.2114C239.683 66.37 238.877 64.9035 238.646 63.3824C245.087 63.2964 251.53 63.4657 257.968 63.299C257.934 62.1034 258.011 60.9052 257.934 59.7122L257.766 59.5637C253.073 59.5194 248.378 59.5872 243.685 59.5377C240.998 59.4778 238.593 57.11 238.667 54.4583C238.723 52.9215 238.462 51.3248 238.978 49.8427ZM264.438 51.0773C264.539 48.8216 266.292 46.5632 268.711 46.4538C275.202 46.3965 281.696 46.4616 288.187 46.4226C288.32 48.4335 286.86 50.4808 284.833 50.9471C282.917 51.3065 280.946 51.0461 279.006 51.1112C278.873 56.7349 278.958 62.3691 278.966 67.9954C277.165 68.1569 275.351 68.1022 273.547 68.0293C273.531 62.3925 273.611 56.7532 273.51 51.119C270.485 51.0929 267.46 51.1789 264.438 51.0773V51.0773ZM290.318 46.4356C294.905 46.4278 299.491 46.4356 304.08 46.433C306.094 46.4434 308.175 46.321 310.114 46.9748C311.279 47.3525 312.293 48.1938 312.777 49.3087C313.557 51.0018 313.424 52.9033 313.394 54.7136C313.33 55.8285 313.267 56.9928 312.772 58.0191C311.926 59.4179 310.436 60.3165 308.882 60.801C310.968 63.2756 313.32 65.5261 315.363 68.0319C313.466 68.1283 311.564 68.071 309.667 68.0814C308.789 68.1048 307.847 67.9121 307.281 67.2062C305.411 65.039 303.586 62.8327 301.734 60.6499C300.638 59.2954 299.417 58.0373 298.419 56.6099C300.84 56.5552 303.261 56.6151 305.685 56.5943C306.491 56.5734 307.643 56.4562 307.818 55.495C308.031 54.3802 308.082 53.195 307.81 52.088C307.547 51.2154 306.445 51.1893 305.685 51.132C302.386 51.1034 299.087 51.1346 295.788 51.1164C295.668 56.7453 295.753 62.3795 295.748 68.0111C293.939 68.1413 292.119 68.1074 290.31 68.0293C290.324 60.8323 290.308 53.6326 290.318 46.4356V46.4356ZM319.487 46.4304C321.261 46.4304 323.038 46.433 324.815 46.4278C324.89 53.6352 324.845 60.8479 324.837 68.0579C323.043 68.097 321.25 68.1048 319.46 68.0527C319.447 60.8453 319.393 53.6352 319.487 46.4304V46.4304ZM330.926 46.4304C332.701 46.4304 334.478 46.433 336.255 46.4278C336.359 49.2019 336.218 51.9812 336.329 54.7553C336.718 54.6563 337.138 54.5756 337.463 54.3125C340.844 51.7311 344.172 49.069 347.585 46.5346C350.182 46.2897 352.832 46.5033 355.452 46.4304C351.448 50.0328 347.226 53.3956 343.201 56.972C347.029 59.9388 350.895 62.8588 354.736 65.8126C355.657 66.5341 356.655 67.1723 357.461 68.0267C355.455 68.1491 353.444 68.0475 351.435 68.0866C350.264 68.0658 348.945 68.2637 347.971 67.4771C344.483 64.9062 341.02 62.304 337.548 59.7122C337.202 59.4153 336.736 59.3814 336.311 59.3215C336.252 62.2336 336.324 65.1458 336.276 68.0579C334.483 68.097 332.69 68.1048 330.9 68.0527C330.884 60.8453 330.836 53.6352 330.926 46.4304V46.4304ZM358.179 46.4408C365.338 46.4226 372.497 46.433 379.656 46.4356C379.648 48.7486 377.805 50.9627 375.384 51.0956C371.473 51.1633 367.559 51.1008 363.651 51.119C363.577 52.3693 363.55 53.6274 363.675 54.8751C368.161 54.8647 372.649 54.8438 377.137 54.8829C377.211 57.2741 375.2 59.5585 372.715 59.6315C369.685 59.6888 366.655 59.6184 363.625 59.6575C363.585 60.8948 363.582 62.1321 363.627 63.3667C368.975 63.4214 374.325 63.3954 379.675 63.3771C379.842 65.8126 377.634 68.1413 375.118 68.0762C370.858 68.0918 366.599 68.0762 362.342 68.0814C360.951 68.0632 359.557 68.1491 358.171 68.0085C358.198 60.8192 358.184 53.63 358.179 46.4408V46.4408ZM243.842 75.69C245.185 75.466 246.606 75.4451 247.936 75.7838C248.891 76.0052 248.91 77.107 249.021 77.8728C248.521 77.8832 248.026 77.8754 247.532 77.8754C247.332 77.5472 247.305 76.9663 246.832 76.9038C246.007 76.7736 245.135 76.7371 244.331 76.9741C243.725 77.1565 243.719 77.8728 243.693 78.3807C243.693 79.3784 243.586 80.4047 243.826 81.3867C244.03 82.1004 244.946 82.0431 245.55 82.0769C246.124 82.0379 246.872 82.1473 247.273 81.6445C247.457 81.2226 247.406 80.7511 247.449 80.3083C246.808 80.3005 246.169 80.2796 245.534 80.2666C245.539 79.9097 245.542 79.5503 245.536 79.1934C246.683 79.1752 247.829 79.1726 248.979 79.2012C248.902 80.389 249.258 81.7878 248.444 82.7958C247.529 83.4132 246.332 83.3194 245.273 83.3507C244.27 83.3064 242.918 83.2595 242.466 82.1994C241.963 80.8266 242.179 79.3211 242.216 77.8936C242.219 76.9247 242.78 75.8515 243.842 75.69V75.69ZM252.318 75.617C252.818 75.6066 253.315 75.6014 253.821 75.5936C253.935 77.7165 253.823 79.842 253.879 81.9675C255.087 81.9467 256.295 81.9363 257.503 81.991C257.489 82.4208 257.484 82.8532 257.481 83.2882C255.76 83.2829 254.036 83.3012 252.315 83.2725C252.341 80.7198 252.336 78.1671 252.318 75.617V75.617ZM262.14 75.6613C263.568 75.5103 265.236 75.3175 266.487 76.151C267.367 77.3024 267.136 78.873 267.16 80.2275C267.069 81.2174 267.104 82.6291 265.957 83.0459C264.531 83.4575 262.959 83.4705 261.528 83.0928C260.488 82.8349 260.299 81.6602 260.227 80.7771C260.158 79.4148 260.115 78.003 260.549 76.6902C260.756 76.0182 261.504 75.7733 262.14 75.6613V75.6613ZM262.062 77.1148C261.57 78.0499 261.762 79.2038 261.725 80.2327C261.802 80.811 261.655 81.7487 262.406 81.9415C263.379 82.1004 264.542 82.2645 265.409 81.6914C265.792 80.2015 265.662 78.6308 265.462 77.1252C264.393 76.7475 263.1 76.6199 262.062 77.1148ZM270.536 75.604C272.175 75.6535 273.832 75.4842 275.46 75.7134C277.067 76.0442 276.998 78.3599 275.95 79.2716C276.929 80.0374 277.131 81.4101 276.601 82.4885C276.266 83.1162 275.479 83.2465 274.83 83.2699C273.398 83.3194 271.964 83.2751 270.536 83.2882C270.461 80.7276 270.459 78.1645 270.536 75.604V75.604ZM271.975 76.8856C271.98 77.5342 271.983 78.1802 271.986 78.8288C273.007 78.8418 274.045 78.8913 275.045 78.6334C275.056 78.0864 275.356 77.2294 274.665 76.9715C273.789 76.7449 272.866 76.883 271.975 76.8856V76.8856ZM271.978 79.9618C271.98 80.6443 271.98 81.3241 271.978 82.0066C272.959 82.017 273.965 82.1368 274.933 81.9076C275.566 81.5169 275.245 80.6834 275.234 80.0895C274.164 79.8577 273.06 79.8498 271.978 79.9618V79.9618ZM282.122 75.6275C282.864 75.6014 283.611 75.5988 284.359 75.6014C285.295 78.1489 286.179 80.7146 287.022 83.2908C286.519 83.2882 286.019 83.2882 285.522 83.2882C285.319 82.7932 285.104 82.3088 284.907 81.8165C283.864 81.8191 282.819 81.7539 281.781 81.8347C281.406 82.228 281.318 82.7959 281.113 83.2803L279.586 83.296C280.323 80.7068 281.316 78.1958 282.122 75.6275ZM283.25 76.8465C282.856 78.1437 282.404 79.42 282.002 80.7146C282.867 80.7355 283.734 80.7355 284.601 80.7224C284.167 79.4226 283.766 78.115 283.25 76.8465ZM290.028 75.5962C290.518 75.6014 291.007 75.6014 291.502 75.604C291.555 77.7243 291.42 79.8498 291.574 81.9675C292.768 81.9467 293.968 81.9441 295.165 81.9779C295.144 82.4182 295.126 82.8584 295.112 83.3012C293.415 83.2751 291.72 83.2908 290.026 83.2882C290.007 80.725 290.002 78.1593 290.028 75.5962ZM305.227 75.6353C306.589 75.5181 308.148 75.3435 309.359 76.0989C310.298 77.1461 310.056 78.6933 310.103 79.9853C310.029 81.0637 310.109 82.6318 308.832 83.0642C307.398 83.4601 305.812 83.4809 304.384 83.0642C303.487 82.8011 303.258 81.8034 303.189 81.009C303.085 79.5894 303.045 78.1203 303.458 76.7423C303.671 75.9843 304.522 75.7317 305.227 75.6353ZM305.251 76.9767C304.642 77.1539 304.783 77.9093 304.69 78.3912C304.703 79.5242 304.426 80.8266 305.049 81.8425C306.068 82.1473 307.323 82.2593 308.286 81.7357C308.709 80.7719 308.56 79.6675 308.579 78.6438C308.499 78.1098 308.614 77.4118 308.153 77.0288C307.228 76.7241 306.185 76.7345 305.251 76.9767ZM313.437 75.604C315.166 75.6118 316.895 75.5884 318.625 75.6197C318.622 76.0156 318.625 76.4115 318.638 76.8074C317.403 76.883 316.169 76.8595 314.935 76.8647C314.919 77.542 314.916 78.2218 314.935 78.9017C316.1 78.9043 317.265 78.8939 318.43 78.9408C318.412 79.3393 318.398 79.7404 318.393 80.1416C317.241 80.1207 316.089 80.1207 314.94 80.1572C314.913 81.1991 314.916 82.2436 314.913 83.2882C314.419 83.2882 313.929 83.2908 313.44 83.296C313.413 80.7303 313.418 78.1671 313.437 75.604ZM321.881 75.604H326.989C326.999 76.0156 327.01 76.4297 327.029 76.8439C325.792 76.8674 324.555 76.8491 323.323 76.883C323.325 77.5498 323.325 78.2166 323.323 78.8835C324.501 78.9095 325.685 78.8861 326.866 78.9668C326.848 79.3523 326.842 79.7378 326.848 80.1259C325.669 80.1364 324.488 80.0843 323.315 80.2015C323.349 81.233 323.355 82.2671 323.275 83.2986C322.807 83.2934 322.344 83.2934 321.886 83.2934C321.798 80.7329 321.806 78.1645 321.881 75.604ZM330.128 75.604C331.895 75.604 333.661 75.604 335.43 75.6066C335.43 76.013 335.438 76.4193 335.454 76.8283C334.156 76.8778 332.86 76.8465 331.567 76.883L331.583 78.8131C332.799 78.7897 334.017 78.7819 335.236 78.8314C335.209 79.1908 335.193 79.5503 335.193 79.9097C333.983 79.8941 332.772 79.8629 331.57 79.9618C331.573 80.6443 331.573 81.3241 331.57 82.0066C332.871 82.0483 334.177 82.017 335.483 82.0509C335.467 82.465 335.457 82.8792 335.454 83.2934C333.677 83.2829 331.903 83.2882 330.128 83.2882C330.051 80.7276 330.051 78.1645 330.128 75.604V75.604ZM338.947 75.5988C339.783 75.5936 340.623 75.5962 341.464 75.6353C342.531 77.7009 343.576 79.7743 344.67 81.8269C344.659 79.7613 344.627 77.6983 344.675 75.6353C345.154 75.6301 345.641 75.6327 346.128 75.6405C346.122 78.1932 346.173 80.7433 346.098 83.2934C345.258 83.296 344.42 83.2934 343.584 83.2569C342.507 81.1965 341.421 79.1413 340.378 77.0653C340.352 79.1439 340.48 81.2252 340.32 83.3012C339.86 83.296 339.405 83.296 338.952 83.2986C338.881 80.7329 338.891 78.1645 338.947 75.5988ZM349.695 76.6668C349.889 75.9088 350.733 75.6587 351.438 75.5988C352.566 75.5077 353.757 75.4451 354.838 75.8385C355.641 76.1719 355.604 77.1565 355.71 77.8702C355.218 77.8702 354.734 77.8676 354.252 77.8572C354.087 77.5238 354.082 77.0757 353.757 76.8465C353.018 76.6798 352.236 76.6902 351.504 76.8621C350.842 77.2086 351.137 78.0213 351.219 78.5865C352.462 78.8209 353.771 78.7011 354.984 79.0918C355.793 79.3497 355.833 80.3135 355.835 81.009C355.819 81.7618 355.75 82.8245 354.864 83.0798C353.473 83.4601 351.951 83.4575 350.554 83.1214C349.554 82.8375 349.477 81.6628 349.565 80.8188C349.972 80.8292 350.389 80.8397 350.807 80.8475C350.945 81.2304 351.07 81.6237 351.283 81.9832C352.244 82.2645 353.279 82.1837 354.242 81.9337C354.276 81.4778 354.385 81.0168 354.305 80.5636C354.157 80.0191 353.486 80.1285 353.052 80.0504C352.007 79.9124 350.762 80.0895 349.916 79.3627C349.392 78.5787 349.493 77.5394 349.695 76.6668V76.6668ZM359.201 75.5962C359.687 75.5988 360.177 75.6014 360.672 75.6066C360.682 78.1671 360.682 80.7276 360.672 83.2882C360.177 83.2882 359.685 83.2908 359.201 83.296C359.174 80.7276 359.171 78.1619 359.201 75.5962ZM363.675 75.6066C364.183 75.604 364.697 75.6014 365.213 75.604C365.95 77.6592 366.647 79.7326 367.264 81.8295C368.046 79.7899 368.629 77.68 369.361 75.6197C369.869 75.6092 370.379 75.604 370.896 75.5988C370.212 78.201 369.291 80.7407 368.421 83.2882C367.661 83.2908 366.905 83.2908 366.152 83.2751C365.319 80.7198 364.449 78.1776 363.675 75.6066V75.6066ZM373.798 75.6014C375.562 75.6066 377.326 75.604 379.089 75.6014C379.097 76.013 379.108 76.4271 379.129 76.8413C377.85 76.87 376.575 76.8569 375.298 76.8621C375.282 77.4951 375.277 78.1281 375.29 78.7636C376.48 78.8001 377.674 78.8027 378.869 78.7688C378.879 79.1465 378.893 79.5268 378.917 79.9045C377.709 79.8941 376.501 79.8915 375.298 79.9176C375.272 80.6209 375.275 81.3268 375.304 82.03C376.591 82.0327 377.879 82.0196 379.172 82.0509C379.153 82.4624 379.14 82.874 379.132 83.2882C377.355 83.2882 375.575 83.283 373.798 83.2908C373.737 80.7277 373.737 78.1619 373.798 75.6014V75.6014Z" fill="white"/>
<path opacity="0.98" d="M381.428 39.6467C379.698 34.8467 383.428 29.0367 388.638 29.0467C392.768 28.5567 395.619 32.0167 397.559 35.1567V39.3766C395.879 41.5366 394.189 44.1167 391.359 44.8167C387.359 45.9867 382.538 43.8067 381.428 39.6467V39.6467ZM385.928 31.0767C381.188 33.3867 381.348 41.0867 386.148 43.2167C390.448 45.5367 396.219 41.7367 395.699 36.8367C395.879 32.0367 390.038 28.7267 385.928 31.0767V31.0767Z" fill="white"/>
<path opacity="0.84" d="M386.278 32.4366C388.418 32.4666 390.568 32.5566 392.738 32.7266C392.298 35.8666 391.478 39.0466 392.528 42.1766C391.108 40.4966 389.688 38.8166 387.988 37.4466C387.678 39.0566 387.368 40.6766 387.048 42.2866C385.228 39.3466 386.398 35.6866 386.278 32.4366ZM387.498 33.5666L387.738 36.9866C389.428 36.5166 392.078 36.3866 391.698 33.9166C390.278 33.8266 388.878 33.7166 387.498 33.5666Z" fill="white"/>
<path opacity="0.11" d="M387.498 33.5667C388.878 33.7167 390.278 33.8267 391.698 33.9167C392.078 36.3867 389.429 36.5166 387.739 36.9866L387.498 33.5667Z" fill="white"/>
</svg>
