<svg width="201" height="199" viewBox="0 0 201 199" fill="none" xmlns="http://www.w3.org/2000/svg">
<path d="M4.10401 4.27059C4.10401 4.27059 10.3642 10.5578 17.8986 3.02399L19.062 5.19199L24.4912 5.46299L25.7654 6.43859L26.541 4.43319L27.3166 4.54159L28.7016 6.38439L29.6988 5.24619L31.9702 5.35459L33.3552 6.81799L34.2416 5.95079L43.3272 6.22179L45.4878 4.97519L45.7648 6.22179L49.809 6.70959L51.471 4.48739C51.471 4.48739 53.8532 7.84779 58.1744 8.06459C62.4956 8.33559 71.0826 7.79359 71.0826 7.79359C71.0826 7.79359 73.631 10.1242 74.5174 7.79359C75.4038 5.46299 74.5174 6.33019 74.5174 6.33019L78.063 6.22179C78.063 6.22179 79.2264 6.81799 80.3344 1.99419L81.6086 4.59579L82.218 1.88579L86.1514 2.26519C86.1514 2.26519 87.9242 3.62019 89.1984 0.530792C89.1984 0.530792 98.838 4.48739 102.993 0.639191C102.993 0.639191 105.652 2.86139 110.084 2.48199C114.516 2.10259 121.718 5.84239 121.829 11.3708C121.829 11.3708 123.491 10.0158 130.194 10.1242C130.084 9.25699 133.851 6.27599 130.194 3.94539C130.194 3.94539 133.241 1.23539 168.808 4.92099C168.808 4.92099 170.692 4.81259 169.196 2.31939C167.7 -0.17381 171.578 0.964391 170.692 0.855991C170.692 0.855991 171.855 8.55239 176.121 3.83699C176.121 3.83699 185.982 8.44399 186.093 4.21639L187.977 5.35459L193.406 5.46299C193.406 5.46299 192.796 8.06459 199.001 9.31119C199.001 9.31119 201.273 19.3382 198.226 20.9642C198.226 20.9642 202.048 38.6876 199.389 69.6358L193.572 69.7442L195.843 75.4352C195.843 75.4352 190.026 77.1696 193.184 82.5896C193.184 82.5896 196.231 81.343 194.071 83.4568C194.071 83.4568 193.572 85.679 196.841 86.3294C196.841 86.3294 194.957 94.0258 198.89 93.7548C198.89 93.7548 195.843 100.692 198.115 102.318C198.115 102.318 196.342 105.516 196.951 111.207C196.951 111.207 196.065 112.183 194.403 110.828C194.403 110.828 191.134 113.7 199.721 112.833L200.497 192.941C200.497 192.941 184.32 183.781 178.115 189.851L185.705 190.448L185.207 191.423L181.938 191.532C181.938 191.532 182.049 195.109 179.556 191.803C179.556 191.803 173.462 197.385 162.216 191.911C162.216 191.911 156.786 194.133 152.354 190.773C152.354 190.773 149.307 190.177 148.698 193.103C148.698 193.103 143.878 192.236 137.175 194.242L137.673 192.507H136.787L136.676 194.621C136.676 194.621 135.679 195.488 134.294 195L135.18 192.019C135.18 192.019 133.131 191.423 132.41 193.266L134.072 192.887L133.574 195C133.574 195 129.64 198.849 124.821 195.759L129.751 195.38C129.751 195.38 130.638 194.784 130.527 193.916C130.527 193.916 111.192 193.645 111.802 195.163L113.297 196.301C113.297 196.301 106.871 198.632 103.935 196.681L103.824 194.838L102.827 194.946L101.165 197.277C101.165 197.277 98.3948 192.453 89.7524 195.163L90.3618 197.277C90.3618 197.277 87.3148 197.006 86.2068 198.415L81.387 190.719C81.387 190.719 74.2958 193.916 70.7502 190.231C70.7502 190.231 70.1408 190.339 69.8638 192.074C69.8638 192.074 66.9276 191.965 65.5426 187.629C65.5426 187.629 63.2712 188.225 64.1576 192.074C64.1576 192.074 61.7754 189.472 61.6092 188.009L59.8364 189.851L61.1106 191.315L60.5012 192.074C60.5012 192.074 57.842 189.364 56.6786 189.96L56.7894 191.586L55.626 191.965L54.1302 189.743C54.1302 189.743 52.4682 190.61 52.3574 191.857L51.748 190.99L50.8616 191.586H49.6982C49.6982 191.586 49.3104 189.093 48.701 188.713L48.0916 190.339H45.8202V188.876L43.6596 190.339C43.6596 190.339 41.1112 189.96 40.6126 192.345L39.2276 191.748C39.2276 191.748 39.5046 189.147 38.452 188.009C38.452 188.009 37.067 187.412 36.79 190.61C36.79 190.61 35.128 191.206 34.6294 188.876H33.466L33.743 191.965C33.743 191.965 33.1336 189.743 27.926 190.339C27.926 190.339 21.9982 190.719 21.2226 188.713L20.724 191.803C20.724 191.803 20.3362 189.093 14.7962 191.532L13.522 191.423L13.6328 189.797H12.8572L12.3586 192.507L11.0844 192.236C11.0844 192.236 12.3586 190.122 10.9736 189.635C10.9736 189.635 8.92381 190.122 8.70221 192.128L7.42801 191.532L7.53881 188.822L1.72181 187.954C1.72181 187.954 5.54441 181.288 2.71901 159.228C2.71901 159.228 2.82981 151.532 4.10401 149.581L7.15101 149.472L8.03741 128.443L4.10401 127.847C4.10401 127.847 2.33121 120.042 3.32841 102.481C3.32841 102.481 3.93781 102.102 5.71061 103.619L6.20921 102.752L4.43641 101.776L4.54721 99.9336L7.98201 101.776L8.25901 94.351C8.25901 94.351 1.27861 91.2616 5.71061 80.259C5.71061 80.259 -0.49419 61.1806 3.82701 16.7366L2.66361 16.1404C2.66361 16.1404 2.27581 19.1214 0.392212 16.2488L0.78001 6.22179L3.05141 6.49279L2.77441 7.25159L1.88801 7.52259L2.27581 12.1296L3.05141 12.238L4.10401 4.27059Z" fill="url(#paint0_linear)"/>
<path d="M23.9927 40.422L72.5785 91.1532C72.5785 91.1532 76.2349 90.6654 77.3983 93.4838C78.5617 96.3564 76.6227 93.8632 76.6227 93.8632L75.1269 92.725L94.7385 113.538C94.7385 113.538 92.3563 107.088 95.5141 112.942C98.6719 118.741 103.713 122.969 103.713 122.969L104.489 121.83L101.553 118.633C101.553 118.633 99.3921 116.139 102.439 117.765L106.262 122.589C106.262 122.589 105.375 125.299 108.311 127.684L107.702 125.679C107.702 125.679 110.25 127.034 112.411 131.261L112.3 129.635L114.461 131.641L113.574 132.779L133.795 153.971C133.795 153.971 138.504 164.865 163.767 163.239C163.767 163.239 175.789 148.28 176.786 125.841L160.055 114.839L150.305 113.971L150.415 112.345L154.072 113.809L155.346 113.917L153.185 112.183L154.183 111.045L73.8527 57.5492C73.8527 57.5492 68.8113 57.8202 69.0329 54.5682L66.9831 54.4598L65.8197 53.3216L64.6563 54.1888L64.0469 53.5926L64.8225 52.346L61.7201 50.72L63.2159 52.5628L62.4403 52.9422L59.1717 49.7444L59.9473 48.8772L44.9893 38.5792C44.9893 38.5792 38.1751 31.4248 23.9927 40.422Z" fill="black"/>
<path d="M39.3938 119.662L78.894 157.006L50.917 165.787L49.1996 164.757C49.1996 164.757 48.6456 167.087 46.0972 165.461C46.0972 165.461 47.1498 167.25 48.3132 164.161C48.3132 164.161 47.87 163.185 47.2606 164.161L46.8174 165.082L46.7066 163.293L45.5432 164.052L44.6568 163.944L44.4906 165.57L27.7598 153.429C27.7598 153.429 25.3776 152.562 27.2612 146.925C29.1448 141.234 39.3938 119.662 39.3938 119.662Z" fill="black"/>
<path d="M158.504 71.6954L162.548 46.2756L161.385 46.3298L161.495 47.3054C161.495 47.3054 160.997 49.4734 160.498 47.5764C160 45.6794 161.108 45.0832 161.108 45.0832L162.437 45.4626L162.493 44.6496L153.684 38.3624C153.684 38.3624 150.582 36.086 144.432 37.983C138.283 39.88 119.225 44.5954 119.225 44.5954L152.465 69.5274L152.908 68.6602L151.302 67.9014C151.302 67.9014 150.249 66.6006 152.244 66.6548C154.293 66.709 153.739 70.4488 153.739 70.4488H155.623L156.676 71.8038L158.504 71.6954Z" fill="black"/>
<defs>
<linearGradient id="paint0_linear" x1="101.361" y1="0.255697" x2="99.7743" y2="198.803" gradientUnits="userSpaceOnUse">
<stop stop-color="#BB3119"/>
<stop offset="1" stop-color="#812112"/>
</linearGradient>
</defs>
</svg>
