<svg width="353" height="107" viewBox="0 0 353 107" fill="none" xmlns="http://www.w3.org/2000/svg">
<path fill-rule="evenodd" clip-rule="evenodd" d="M281.24 49.1759C280.183 49.3923 273.73 47.6768 271.931 47.303C264.203 45.6968 251.771 44.1552 243.618 43.9719C243.363 43.9661 241.627 44.0073 241.496 43.7617C241.461 43.6963 241.365 43.7162 241.309 43.6822C240.759 43.9785 241.546 43.813 240.348 43.8852C239.95 43.9092 239.259 43.8641 238.838 43.8518C235.28 43.7459 221.747 44.005 219.911 44.635C220.795 44.8907 229.592 45.4552 231.523 45.6711C252.203 47.981 272.31 53.4344 290.213 61.4964C291.733 62.181 297.615 64.8025 298.314 65.4457C297.066 66.3324 293.979 67.5394 292.321 68.3093C268.383 79.4246 234.691 85.2128 207.048 87.6229C198.303 88.3854 187.879 88.8983 178.965 89.0936C175.82 89.1622 172.23 89.0862 169.158 89.3044C169.804 89.2516 176.684 90.0187 178.271 90.1354C201.112 91.8163 225.242 91.7431 247.854 89.1844C265.479 87.19 280.973 83.9153 296.435 77.931C301.505 75.9685 305.467 73.8575 309.654 71.6761C311.161 72.224 315.743 75.3091 317.405 76.347C318.024 76.7343 318.236 76.9647 318.872 77.3433L321.798 79.3482C322.877 80.2452 323.631 80.6124 324.709 81.3682C325.659 82.0351 326.486 82.8131 327.448 83.5126L331.526 86.7638C332.048 87.1995 332.556 87.4481 333.099 87.8697L338.306 92.3783C342.975 96.7988 346.011 99.627 350.309 104.447C350.733 104.923 352.051 106.653 352.562 107C351.874 104.743 347.812 97.3858 346.39 95.0407C339.9 84.3322 335.524 80.3519 326.912 72.2572L322.755 69.0711C322.236 68.6876 321.983 68.3546 321.462 67.9414C320.464 67.1499 319.488 66.9198 318.547 65.8348L322.803 62.2413C327.25 58.3172 330.374 54.3955 333.465 49.523C337.295 43.487 340.234 34.7206 340.771 27.2098L337.97 32.4164C334.669 37.9082 330.142 43.1982 325.268 47.631L308.6 59.9259L302.329 56.9398C295.812 54.0343 291.695 52.5082 284.685 50.4255C283.979 50.2154 283.478 50.0589 282.854 49.9016C282.684 49.8587 281.963 49.6936 281.896 49.6711C280.809 49.3088 281.194 49.7522 281.24 49.1759H281.24Z" fill="white"/>
<path fill-rule="evenodd" clip-rule="evenodd" d="M182.395 41.935C183.124 42.1245 187.495 43.9302 187.967 44.4405C186.649 45.0368 184.564 45.5698 183.104 46.0515C180.12 47.0356 180.674 46.3978 179.73 48.8699C178.985 50.8225 176.773 55.6445 176.583 57.2266L230.466 57.202L233.053 50.5354L192.632 50.5002L210.026 44.6893C208.836 43.7517 198.412 39.7295 196.93 38.866C196.626 38.6889 196.677 38.7254 196.478 38.547L237.672 38.5332L240.272 31.8126L186.304 31.8176L182.395 41.935ZM117.119 57.2169L129.011 57.2337L136.271 38.5708C144.538 38.2928 157.347 38.5999 166.321 38.5264C165.508 41.2947 164.976 40.8213 161.712 41.8746C160.362 42.3101 156.379 43.7504 155.246 43.8839L137.291 43.9179C136.57 45.3635 135.048 49.0976 134.72 50.6423C140.534 50.5636 146.428 50.6327 152.252 50.6327C159.122 50.6327 158.813 50.2501 166.099 47.8109C168.221 47.1003 170.16 46.4842 172.253 45.7831C177.315 44.0878 175.466 45.6444 178.798 37.2622C179.43 35.6723 180.466 33.4019 180.826 31.7993L126.944 31.8066L117.119 57.2168V57.2169ZM241.309 43.6822C241.365 43.7162 241.461 43.6963 241.496 43.7617C241.627 44.0073 243.363 43.9661 243.618 43.9719C251.771 44.1552 264.203 45.6968 271.931 47.303C273.73 47.6768 280.183 49.3923 281.24 49.1759C283.543 48.4119 285.992 47.66 288.337 46.9345L293.676 45.2473C294.765 44.9082 294.703 45.0603 295.074 44.1915C295.923 42.201 296.657 40.0775 297.422 38.0508C298.151 36.1197 299.365 33.6623 299.75 31.7959L245.842 31.807L241.309 43.6821V43.6822ZM66.3841 38.2709L79.9539 47.3387C80.3836 47.6455 80.6511 47.7534 81.0638 48.0373C81.8169 48.5557 82.6166 49.0382 83.1491 49.4482L80.2181 57.1888L92.1178 57.2209C92.7606 55.6745 93.3153 54.129 93.9295 52.5926C94.9157 50.1263 94.2487 50.0263 97.0619 48.8083L117.126 39.8971C119.925 38.6234 119.99 39.2615 120.967 36.6638C121.499 35.2527 122.508 33.2008 122.772 31.7963L110.912 31.8016C109.061 36.2506 111.236 34.3954 102.224 38.4271C100.426 39.2316 92.2128 43.0758 90.8591 43.3031C90.321 42.801 90.34 42.7644 89.6343 42.3471L79.4236 35.5825L80.805 31.814L68.8715 31.7987L66.3843 38.271L66.3841 38.2709ZM48.5885 41.132L21.5902 41.1787L18.9459 47.8371L45.9448 47.8954L42.3974 57.195L54.3126 57.2317L64.104 31.8709L52.1819 31.8051L48.5882 41.132H48.5885ZM0.438232 57.2124L12.2737 57.2322L22.0722 31.8629L10.3645 31.8064C10.0881 32.1639 0.586349 56.274 0.438394 57.2123L0.438232 57.2124ZM253.198 43.9185C259.666 43.9004 266.15 43.8958 272.619 43.9169C276.172 43.9284 279.725 42.4938 283.458 41.1947C284.688 40.7664 284.743 40.3947 285.239 38.5276L255.602 38.5353C254.748 38.72 253.347 43.3451 253.198 43.9185V43.9185ZM236.059 57.206L237.084 57.2361L247.094 57.234L247.974 57.1972L250.442 50.8683C248.986 50.1798 241.425 48.9631 239.304 48.7253L236.059 57.2059L236.059 57.206Z" fill="#DB241D"/>
<path fill-rule="evenodd" clip-rule="evenodd" d="M78.5934 19.628C79.349 21.8178 79.2756 24.8943 77.3697 26.888C76.7219 27.5661 75.8384 27.7633 75.8137 28.3864C78.1537 28.1189 81.0926 26.9904 82.4312 25.9581C84.5669 24.3108 84.9873 23.1404 84.9752 20.1288C84.9648 17.5359 84.9739 14.942 84.9737 12.3489C84.9734 10.7229 84.5826 8.31909 86.0404 7.36816C86.4518 7.09993 87.3292 6.87884 87.8547 6.70867C87.107 6.46765 80.2614 6.53035 79.0982 6.64409L79.0005 7.85611C77.6547 7.04475 74.9987 4.55087 70.9481 7.69923C64.2368 12.9155 68.205 23.7886 75.6175 21.8401C77.5835 21.3232 77.4273 20.8003 78.5935 19.6279L78.5934 19.628ZM9.49068 0.39666C10.4764 1.21729 11.0217 0.653484 11.8368 1.87603C13.0753 3.73325 13.218 18.9994 11.8462 20.5065C11.0783 21.3503 10.1411 21.101 9.22107 21.6348C10.4965 21.8588 16.7308 21.7244 18.8727 21.7288C19.7251 21.7305 21.4559 21.9445 22.0914 21.4904C19.4089 20.9875 18.5031 21.3272 18.4743 17.6079C18.458 15.5172 18.3191 12.9398 18.5127 10.9023C21.598 10.4329 22.7712 13.0152 23.435 14.8435C24.1196 16.7275 24.8147 19.671 25.1403 21.7036L34.6375 21.7298C34.3375 21.4254 34.6497 21.6478 34.2189 21.4367C34.0092 21.3337 33.7838 21.2658 33.5466 21.1736C28.2155 19.1043 34.1483 10.884 19.7495 10.2842C19.8674 9.78593 22.3602 8.07907 22.8736 7.67866C25.7705 5.42104 26.8208 4.34747 30.0247 2.53615C31.755 1.55814 34.2235 0.702767 34.3866 0.485069C33.4945 0.193131 24.7185 0.209685 23.8475 0.485069C24.5621 1.35348 26.572 0.702391 26.1887 3.00052C25.8177 5.22416 19.3406 10.1255 18.5323 10.0853C18.328 8.72803 18.0694 2.71799 19.1915 1.51174C20.2517 0.372081 21.5383 1.13114 21.7967 0.374338L9.49052 0.39666H9.49068ZM120.32 6.28594C115.933 7.02669 111.785 10.7574 112.369 15.1925C112.855 18.8787 117.468 22.7844 123.07 21.945C127.515 21.2788 131.831 17.3041 130.973 12.9418C130.288 9.46138 125.671 5.38191 120.32 6.28582L120.32 6.28594ZM138.399 8.14278L138.387 6.43366L130.282 6.49612C128.163 6.48658 132.263 6.42902 132.442 9.23754C132.55 10.9306 132.76 19.5025 131.95 20.685C131.313 21.6157 131.019 21.5546 130.131 21.6849C130.795 21.9658 138.896 21.9045 140.355 21.7737C140.026 21.0342 138.594 22.0766 138.407 18.7732C138.318 17.1883 138.386 15.5008 138.386 13.9052C138.386 11.2324 137.613 6.45298 142.188 7.16827C144.05 8.41992 143.315 12.4561 143.315 14.683C143.315 16.0925 143.368 17.5659 143.302 18.9677C143.237 20.3599 143.227 20.8397 142.297 21.3415C141.103 21.9862 141.773 21.2874 141.556 21.8043C143.286 21.7952 150.976 22.0123 151.911 21.6848C150.113 20.6442 149.566 22.2239 149.572 16.628C149.577 12.0118 150.76 6.63556 144.714 6.1786C139.807 5.80778 139.818 7.46661 138.399 8.14265L138.399 8.14278ZM55.0683 8.1409L55.0355 6.43805L48.3925 6.43316C47.474 6.42376 46.9062 6.35943 46.4058 6.7088C49.7081 8.04847 49.0974 7.21066 49.0974 14.0994C49.0974 15.5345 49.3693 19.5469 48.6073 20.6829C48.0764 21.4745 47.4993 21.2404 46.7981 21.6848C47.4186 21.9169 56.4113 21.911 57.0307 21.6848C56.2122 21.1631 55.1941 21.8607 55.0484 18.7715C54.9797 17.3093 55.0378 15.7651 55.0378 14.2942C55.0378 11.8417 54.3819 7.52279 57.4682 7.11272C61.0234 6.6402 59.9532 12.0987 59.9532 14.0995C59.9532 15.2344 60.4144 20.5149 59.1516 21.281C58.9558 21.3996 58.878 21.4 58.6663 21.4872L58.1637 21.6848C58.9411 21.9172 67.841 21.9461 68.5603 21.6848C67.3792 20.9899 66.8026 21.7819 66.3581 19.9682C65.267 15.5166 68.9285 6.76686 61.3647 6.17872C57.7884 5.90058 56.6327 6.85715 55.0681 8.14077L55.0683 8.1409ZM88.7913 16.9386L85.9979 16.8643C86.118 22.1894 97.0318 23.9016 100.899 19.5048C102.014 18.2374 102.61 15.9122 101.291 14.4174C99.1252 11.9619 92.2732 11.5821 91.031 9.5518C88.8557 5.99626 98.2595 4.53018 98.1426 10.2524L100.537 10.2453C100.146 4.89222 88.3247 4.70035 86.9694 10.0481C85.1342 17.29 100.141 15.6039 96.9016 20.2899C95.8542 21.8051 89.0419 23.5357 88.7912 16.9386H88.7913ZM100.347 7.56843L103.539 7.57984C103.939 10.3823 102.987 17.5215 103.981 19.5305C105.797 23.199 114.003 21.7328 114.395 19.9956C113.06 20.464 111.926 21.0684 110.657 19.9744C109.758 19.2 109.539 17.9022 109.539 16.628L109.577 7.59891L112.985 7.54937L113.514 6.43918L109.601 6.43366L109.536 1.76756C108.51 2.07379 108.476 2.43746 107.436 3.38638C106.75 4.01239 106.093 4.34195 105.347 4.87453L100.347 7.56843H100.347ZM34.9831 6.44834C35.2961 7.21166 35.8331 6.69049 36.7974 7.36428C37.3247 7.73246 37.5863 8.48488 37.7063 9.37586C37.9429 11.1295 37.841 19.5683 37.2045 20.5693C36.8003 21.2045 36.4034 21.2584 35.5407 21.614C35.5046 21.6289 35.4249 21.6558 35.3734 21.6849C36.2151 21.9263 45.5552 21.9539 46.2998 21.6849C45.0768 20.9935 44.092 21.8451 43.6539 19.539L43.4506 6.47241L34.9831 6.44834ZM120.786 6.66792C117.878 7.69547 118.582 12.3805 118.604 15.0721C118.622 17.3871 118.484 23.0857 123.027 21.535C125.635 20.6448 125.049 15.6223 125.053 13.1272C125.058 10.7641 125.081 5.15042 120.786 6.66804V6.66792ZM75.3737 6.82041C73.3083 7.71954 73.5229 12.6376 73.5217 14.6834C73.515 25.1329 79.496 22.1255 79.167 13.1268C79.1161 11.7364 79.1078 10.1822 78.6668 8.87513C78.3263 7.86677 77.1595 6.04266 75.3737 6.82028V6.82041ZM39.7856 0.880212C35.5191 1.91215 37.6435 6.33924 41.4918 5.42743C45.3498 4.51312 43.4246 1.13918e-05 39.7856 0.880212Z" fill="white"/>
</svg>
