<svg width="1018" height="1199" viewBox="0 0 1018 1199" fill="none" xmlns="http://www.w3.org/2000/svg">
<path d="M145.091 621.578C125 333.664 145.091 206.164 145.091 206.164C-32.9817 377.158 -74.7714 772.455 178.297 1022.91C431.365 1273.37 818.071 1239.17 1018 1022.91L914.358 919.308C546.076 1230.11 165.182 909.492 145.091 621.578Z" fill="white"/>
<path d="M898 596.164C898 761.849 763.685 896.164 598 896.164C432.315 896.164 298 761.849 298 596.164C298 430.478 432.315 296.164 598 296.164C763.685 296.164 898 430.478 898 596.164ZM448 596.164C448 679.007 515.157 746.164 598 746.164C680.843 746.164 748 679.007 748 596.164C748 513.321 680.843 446.164 598 446.164C515.157 446.164 448 513.321 448 596.164Z" fill="white"/>
<path d="M444 191.164V339.164C353.419 412.496 323.426 472.41 298 603.164V101.164C302.245 7.95737 764.464 -98.2296 1015.5 172.164L913 274.664C765.5 110.664 444 131.664 444 191.164Z" fill="white"/>
</svg>
