<svg width="181" height="82" viewBox="0 0 181 82" fill="none" xmlns="http://www.w3.org/2000/svg">
<path d="M11.7694 0.291874C10.4941 0.592699 9.54264 1.00435 8.83412 1.68517C7.82195 2.63514 7.78147 2.77764 7.86244 5.61173C7.90293 7.24252 7.90293 10.1241 7.86244 12.0716C7.82195 15.5548 7.82195 15.5548 6.99197 15.349C5.33202 14.9057 1.36431 15.1115 0.696283 15.6815C0.129468 16.1565 0.129468 16.1565 0.777256 15.9823C1.2631 15.8715 1.42504 15.919 1.30358 16.1565C1.22261 16.3623 0.91896 16.5048 0.696283 16.4573C0.433119 16.4256 0.271172 16.9639 0.271172 17.9297C0.271172 18.7847 0.149711 19.9722 0.0484946 20.5263C-0.0932091 21.3496 0.0484946 21.7138 0.837986 22.363C1.74894 23.1229 2.05259 23.1863 4.7652 23.1863C7.29562 23.1863 7.74098 23.2813 7.90293 23.6929C8.1256 24.3737 7.86244 58.0662 7.63976 58.5412C7.5183 58.8103 6.66808 58.9212 5.02837 58.9212C3.38865 58.9212 2.19429 59.0953 1.44529 59.4278C0.311659 59.9661 0.271172 60.0136 0.230685 62.3252C0.149711 67.0276 0.311658 67.2018 5.06885 67.2018H8.24706L8.1256 72.8699C7.9839 80.8497 8.26731 81.1981 15.5954 81.5147C26.4661 81.9581 58.2887 82.1322 63.5115 81.7839C65.3334 81.673 66.9529 81.6414 68.714 81.6731C71.1635 81.7047 71.7708 81.6731 72.2161 81.3406C72.6008 81.1031 72.7425 81.1031 72.7425 81.3406C72.7425 81.5147 72.9247 81.6731 73.1271 81.6731C73.3498 81.6731 73.5117 81.4039 73.5117 81.0556C73.5117 80.7231 73.37 80.5489 73.1271 80.6439C72.9449 80.7389 72.7425 80.6756 72.7425 80.5014C72.7425 79.9631 73.6534 80.3273 74.0583 81.0397C74.4429 81.6889 74.5441 81.6889 82.9249 81.6889C87.6011 81.6889 94.0183 81.7839 97.1965 81.863C105.759 82.1322 119.181 81.7522 119.181 81.2139C119.181 80.9764 119.363 80.8022 119.606 80.8022C119.829 80.8022 119.95 81.0081 119.788 81.2456C119.646 81.6256 120.051 81.6889 122.501 81.6889C124.08 81.7205 132.805 81.7522 141.914 81.7839C150.983 81.8155 158.291 81.7522 158.19 81.6097C158.109 81.4989 158.311 81.4039 158.635 81.4039C159.02 81.4039 159.121 81.5464 158.979 81.7522C158.534 82.3064 168.413 81.8472 170.073 81.1981C172.826 80.1373 172.988 79.6939 173.008 73.2816C173.048 70.115 173.15 67.3443 173.312 67.0751C173.453 66.7268 173.757 66.6634 174.364 66.8059C175.457 67.1068 179.567 66.9484 180.336 66.6318C180.822 66.3943 180.781 66.3626 180.215 66.331C179.789 66.331 179.567 66.1885 179.688 65.951C179.769 65.7768 180.032 65.6185 180.215 65.6501C180.7 65.7451 181.085 61.0111 180.66 60.4253C179.749 59.1586 179.607 59.0953 176.166 58.9528L172.725 58.8103L172.644 40.9983L172.522 23.2179H175.882C178.98 23.2179 179.243 23.1546 180.154 22.3946C180.943 21.7455 181.105 21.3971 180.943 20.558C180.822 20.0039 180.721 18.8164 180.721 17.9931C180.721 16.9956 180.579 16.4573 180.296 16.5206C180.073 16.5523 179.769 16.4098 179.688 16.1881C179.567 15.9506 179.729 15.8873 180.215 16.014C180.822 16.1881 180.822 16.1565 180.336 15.7448C179.729 15.2381 176.004 15.0007 174.304 15.3648C172.603 15.7131 172.461 15.3965 172.218 10.0766C171.793 1.85933 171.004 0.687697 165.842 0.798527C164.324 0.830193 162.906 0.766861 162.664 0.687697C162.259 0.402704 155.842 0.0543802 152.603 0.0543802C151.348 0.086046 149.161 0.086046 147.704 0.086046C146.266 0.086046 138.797 0.149378 131.084 0.181043C123.412 0.212709 115.679 0.276041 113.897 0.32354C112.116 0.371038 109.93 0.43437 108.998 0.418537C94.3421 0.244375 82.1961 0.181043 81.5483 0.307707C81.0625 0.402704 80.7184 0.576866 80.7993 0.687697C80.8398 0.798527 80.7184 0.92519 80.4957 0.956856C80.3135 1.02019 80.1111 0.861859 80.1111 0.656031C80.1111 0.386871 78.2892 0.307707 72.3781 0.307707C66.3658 0.307707 64.6856 0.402704 64.7058 0.656031C64.7868 0.861859 64.5641 1.03602 64.22 1.03602C63.9164 1.03602 63.7342 0.92519 63.8354 0.766861C64.2807 0.228542 61.8313 0.149378 44.6244 0.149378C35.0695 0.149378 24.1988 0.086046 20.4538 0.0385473C15.4942 -0.0564502 13.1257 0.0227143 11.7694 0.291874ZM88.5121 8.2875C140.193 8.35083 157.299 8.25583 157.299 8.01834C157.299 7.74918 157.421 7.78084 157.603 8.01834C157.744 8.22416 158.736 8.42999 159.749 8.46166L161.631 8.55665L161.672 10.0291C161.753 12.3882 162.238 36.2484 162.198 36.7551C162.077 39.2725 162.198 58.2562 162.38 64.8743C162.562 71.4925 162.522 73.3766 162.157 73.5508C161.894 73.6616 160.457 73.7249 159.02 73.6933C156.226 73.5983 146.023 73.5983 106.913 73.6299C86.6294 73.6616 83.9978 73.7249 84.18 74.1049C84.3217 74.4057 84.1395 74.5482 83.6537 74.5482C83.1678 74.5482 82.9654 74.4057 83.1273 74.1049C83.3095 73.7249 80.941 73.6933 64.139 73.6933C53.6125 73.7249 41.8713 73.8041 38.0453 73.8991C34.2598 74.0099 31.1828 74.0099 31.1828 73.8674C31.1828 73.5191 29.867 73.6299 29.3609 74.0099C29.0168 74.2791 28.7941 74.3107 28.6119 74.0732C28.4702 73.8358 26.6483 73.7249 23.6725 73.6933C21.1016 73.6616 18.8344 73.5824 18.6926 73.4874C18.5105 73.3924 18.3485 72.2841 18.3485 70.9542C18.3485 68.9751 18.2675 68.6267 17.7817 68.7692C17.3971 68.8801 17.2149 68.7376 17.2149 68.3576C17.2149 67.9776 17.3971 67.8192 17.7817 67.9459C18.2675 68.0884 18.3485 66.7901 18.389 57.4012C18.5307 22.078 18.5307 22.4896 18.0044 22.3471C17.7007 22.2521 17.6197 22.1413 17.8829 22.0146C18.4497 21.7455 18.5307 18.1831 18.0044 16.8689C17.7412 16.2831 17.6602 15.634 17.8627 15.4281C18.0044 15.2223 18.1663 13.5599 18.2473 11.8024C18.2878 9.99745 18.3283 8.38249 18.3283 8.145C18.3688 7.87584 18.5914 7.81251 19.0368 8.0025C19.3809 8.11333 50.6569 8.25583 88.5121 8.2875Z" fill="white"/>
<path d="M138.169 15.7289L130.132 15.7923L128.654 16.9164C127.399 17.8664 127.136 18.2464 126.954 19.6397C126.529 22.4421 126.529 26.3687 126.873 32.6385C127.055 35.9792 127.177 39.225 127.096 39.8741C127.015 40.5233 126.954 45.954 126.954 51.9863L126.913 62.911L127.824 64.0668C128.31 64.6843 129.262 65.3651 129.93 65.6026C131.448 66.1093 146.61 66.2201 148.614 65.7451C150.457 65.3018 151.934 63.8293 152.157 62.1985C152.542 59.3328 152.38 37.515 151.975 36.6917L151.55 35.9001H146.367C142.865 35.9001 141.043 36.0109 140.74 36.2484C140.436 36.4859 140.294 37.6417 140.294 39.4308V42.2649L141.428 42.7716L142.562 43.3099L142.602 46.6189C142.602 48.4556 142.602 51.4005 142.562 53.2371C142.521 55.2162 142.683 56.752 142.946 57.0687C143.25 57.4487 143.29 57.8287 142.987 58.3986C142.602 59.1903 142.562 59.1903 139.748 59.0795C136.529 58.9686 135.942 58.7786 136.529 58.1928C136.954 57.7812 137.136 37.135 136.792 27.4295L136.61 22.6796L139.323 22.5688C143.371 22.4263 143.331 22.3946 143.331 24.5162C143.331 25.5453 143.513 26.4953 143.776 26.7011C144.12 26.9703 144.12 27.0495 143.776 27.0495C142.946 27.0495 143.29 27.8728 144.201 28.0311C145.558 28.2369 150.882 28.0628 151.266 27.7619C151.408 27.6195 151.651 25.3395 151.752 22.6796L151.894 17.8347L150.841 17.0114C149.93 16.2989 149.141 16.0614 146.61 15.7448C146.367 15.6814 142.541 15.6814 138.169 15.7289ZM30.2716 16.2989C29.9274 16.5681 29.8262 18.2464 29.9274 22.3471C30.0489 28.9653 30.0084 28.4586 30.4537 27.9044C30.7574 27.5561 30.8384 27.6353 30.8384 28.2528C30.8384 28.6644 30.6562 29.0761 30.393 29.1394C30.0489 29.2344 29.9477 30.501 29.9477 33.541C29.9072 37.23 29.8262 37.9108 29.2594 38.3542C28.6926 38.7658 28.5711 39.415 28.5711 42.1382C28.5711 43.9432 28.6926 45.3206 28.8343 45.2415C29.1784 44.9723 30.4537 45.8906 30.4537 46.429C30.4537 46.6348 30.3323 46.8089 30.1906 46.8089C30.0084 46.8089 29.8464 50.8622 29.7655 55.8179C29.725 60.7736 29.8464 64.8268 29.9882 64.8268C30.1703 64.8268 30.5145 65.1593 30.7372 65.571C31.1623 66.2834 31.304 66.3151 34.9275 66.3151C40.5147 66.3151 40.2111 66.8534 40.1098 56.1029C40.0289 51.4005 39.9681 47.4264 39.8872 47.2681C39.4621 46.0015 39.6645 45.9381 45.029 45.9381C50.8388 45.9381 53.0251 45.6056 54.3207 44.5448L55.1912 43.8007L55.3126 30.9919C55.3936 22.3629 55.2721 17.9614 55.009 17.5814C54.0575 16.2198 53.0454 16.1089 41.5269 16.0139C33.551 15.9664 30.555 16.0298 30.2716 16.2989ZM45.1707 23.3762C45.2112 23.6771 45.2112 26.8278 45.2517 30.406C45.2517 33.9843 45.3731 36.66 45.4339 36.3751C45.7375 35.4884 46.3043 35.8367 46.3043 36.9292C46.3043 37.7842 46.1829 37.9583 45.697 37.8159C45.2719 37.705 45.1707 37.7842 45.3124 38.1642C45.4946 38.6075 45.2719 38.6708 43.0046 38.5758C41.5674 38.5125 40.292 38.275 39.9884 38.0692C39.3811 37.5942 39.3406 36.7392 39.9074 36.7392C40.1706 36.7392 40.2515 34.6651 40.0896 29.9786C40.0086 26.2578 40.0086 23.1229 40.1301 23.0437C40.2718 22.9487 41.4459 22.8696 42.782 22.8696C44.8063 22.8854 45.1707 22.9646 45.1707 23.3762ZM62.58 16.2039C61.9322 16.7897 62.1549 23.3446 62.8432 23.2337C63.0658 23.2021 63.2885 23.3762 63.2885 23.6137C63.2885 23.8512 63.0658 24.0254 62.8432 23.962C62.499 23.9304 62.3168 24.4054 62.2359 25.4662C62.1549 26.7011 62.2359 27.002 62.6205 26.8278C63.0051 26.6536 63.0051 26.6853 62.7015 27.0336C62.0942 27.6511 61.6893 61.1061 62.2561 63.0852C62.6002 64.146 63.0051 64.716 63.9565 65.2385L65.2116 65.9984L75.1107 65.8876C86.1433 65.7768 86.9328 65.6184 88.1271 63.8135C88.9571 62.5469 89.3013 52.588 89.0988 35.2509C89.0179 28.1894 88.9571 21.1596 88.9571 19.6872C88.9571 17.9772 88.8154 16.8847 88.532 16.7264C88.2688 16.6314 88.0057 16.6947 87.9247 16.8689C87.7425 17.3756 87.0947 17.3122 87.0947 16.7739C87.0947 16.4256 86.4874 16.3306 83.876 16.3306C78.6937 16.3306 79.0784 15.3489 79.1188 28.9653C79.1593 35.2509 79.2605 42.1699 79.382 44.2915C79.5642 47.0939 79.5035 48.2181 79.1998 48.2181C78.5115 48.2181 78.714 49.3422 79.463 49.6589C79.9083 49.8964 79.9893 50.0389 79.6452 50.1972C79.382 50.3713 79.1593 51.828 79.0784 54.4721C78.9569 57.892 78.8557 58.6045 78.2889 59.0478C77.6411 59.5544 77.5803 59.5544 77.1147 59.0478C76.5479 58.4936 74.9689 58.3986 73.8353 58.8736C72.7017 59.3169 71.5276 58.462 71.8312 57.4012C72.0944 56.5145 72.2766 32.0052 72.0944 23.1229L71.9527 17.0431L70.3332 16.3623C69.2401 15.8873 68.4506 15.7131 67.985 15.8873C67.2765 16.1248 64.746 16.1248 63.6529 15.8556C63.3088 15.8556 62.8432 15.9664 62.58 16.2039ZM96.2245 16.1723C95.7994 16.6156 95.6577 27.3345 96.0828 28.7753C96.265 29.3294 96.265 30.7227 96.1638 31.8785C96.0221 33.0343 96.0423 34.0951 96.2447 34.3009C96.7306 34.7759 96.2447 35.8684 95.5565 35.8684C95.2528 35.8684 95.1111 36.0109 95.2123 36.1692C95.3338 36.3434 95.1718 36.6759 94.8682 36.9292C94.1799 37.4675 93.9977 41.5999 94.6455 41.9166C94.8682 42.0116 95.0301 42.3599 95.0301 42.6607C95.0301 42.9615 95.2123 43.2465 95.4553 43.3099C95.7994 43.4049 95.9006 46.049 95.9006 52.9996C95.8601 58.557 96.0221 62.7369 96.2447 62.9585C96.4269 63.1327 96.4269 63.3702 96.2852 63.4335C96.103 63.5285 96.0221 64.146 96.103 64.7951L96.2447 65.9984L106.326 65.9034C121.347 65.8084 120.476 66.6476 120.517 52.113C120.517 42.3441 120.476 41.9007 119.768 41.2991C117.5 39.3833 117.237 39.0192 117.844 38.7658C119.363 38.1167 119.727 36.755 119.808 32.3218C119.849 29.9627 119.93 25.672 119.99 22.7904C120.112 17.8347 120.071 17.5022 119.302 16.9481C118.128 16.0298 116.367 15.8556 106.124 15.8239C98.9776 15.8239 96.5282 15.8873 96.2245 16.1723ZM110.354 22.9171C110.577 23.2179 110.577 25.4503 110.354 34.1109C110.314 36.2642 110.132 36.3909 107.298 36.0267L105.678 35.8526L105.455 33.2876C105.334 31.8627 105.233 30.5169 105.192 30.2794C105.192 30.0419 105.314 28.2053 105.455 26.2103L105.719 22.6004H107.905C109.099 22.5846 110.192 22.7271 110.354 22.9171ZM110.192 43.674C110.334 43.8482 110.496 46.1281 110.496 48.7247C110.496 51.3213 110.537 54.6621 110.537 56.1662C110.577 57.6387 110.496 59.0003 110.354 59.1428C110.051 59.5228 106.124 59.3803 105.476 58.937C105.051 58.6678 104.99 58.3195 105.213 57.512C105.395 56.9262 105.557 53.5854 105.557 50.0705C105.557 44.5765 105.638 43.6582 106.164 43.3732C106.873 42.9615 109.788 43.1674 110.192 43.674Z" fill="white"/>
</svg>
