<svg width="120" height="60" viewBox="0 0 120 60" fill="none" xmlns="http://www.w3.org/2000/svg">
<g clip-path="url(#clip0)">
<path d="M33.8808 41.8046H12.1557C8.29782 41.8046 5.18059 38.6814 5.18059 34.8371C5.18059 30.992 8.29782 27.8551 12.1557 27.8551H24.279C25.7203 27.8551 26.892 26.6886 26.892 25.2414C26.892 23.8078 25.7203 22.6345 24.279 22.6345H12.1557C5.42209 22.6345 -0.0529022 28.1035 -0.0529022 34.8371C-0.0529022 41.5631 5.42209 47.0449 12.1557 47.0449H33.8808C35.3212 47.0449 36.4877 45.8665 36.4877 44.4252C36.4877 42.9779 35.3212 41.8046 33.8808 41.8046Z" fill="#D4003B"/>
<path d="M24.2918 13.0396H2.56086C1.11275 13.0396 -0.0529022 14.2257 -0.0529022 15.6533C-0.0529022 17.0997 1.11275 18.2731 2.56086 18.2731H24.2918C28.1361 18.2731 31.261 21.4031 31.261 25.2405C31.261 29.0857 28.1361 32.2225 24.2918 32.2225H12.1626C10.7213 32.2225 9.55563 33.3958 9.55563 34.8363C9.55563 36.2775 10.7213 37.4492 12.1626 37.4492H24.2918C31.0178 37.4492 36.4877 31.9742 36.4877 25.2405C36.4877 18.5214 31.0178 13.0396 24.2918 13.0396Z" fill="#D4003B"/>
<path d="M92.7471 13.0396V24.01C92.7471 25.4769 91.561 26.663 90.1001 26.663H87.9002V13.0396H85.5817V26.663H83.3681C81.9132 26.663 80.7287 25.4769 80.7287 24.01V13.0396H78.4034V24.01C78.4034 26.7543 80.6306 28.9875 83.3681 28.9875H90.6641C93.4016 28.9875 95.0724 26.7543 95.0724 24.01V13.0396H92.7471Z" fill="white"/>
<path d="M67.4978 15.3777C64.3755 15.3777 61.8334 17.9189 61.8334 21.0362C61.8334 24.1611 64.3755 26.6955 67.4978 26.6955C70.6159 26.6955 73.1511 24.1611 73.1511 21.0362C73.1511 17.9189 70.6159 15.3777 67.4978 15.3777ZM67.4978 29.0336C63.0844 29.0336 59.5021 25.4445 59.5021 21.0362C59.5021 16.6355 63.0844 13.0396 67.4978 13.0396C71.9061 13.0396 75.4825 16.6355 75.4825 21.0362C75.4825 25.4445 71.9061 29.0336 67.4978 29.0336Z" fill="white"/>
<path d="M102.054 13.0396H99.7291V29.008H102.054V13.0396Z" fill="white"/>
<path d="M46.5203 25.7457C46.5203 25.3788 46.7174 25.0451 47.0323 24.8685L56.1417 19.1503L56.1809 19.1307C57.117 18.5146 57.6939 17.4812 57.6939 16.3539C57.6939 14.5338 56.2005 13.0396 54.3795 13.0396H44.2027V15.3649H54.3795C54.9299 15.3649 55.3754 15.8035 55.3754 16.3539C55.3754 16.6876 55.2047 16.9897 54.9367 17.1791L45.9051 22.8444C44.8563 23.5458 44.2027 24.5408 44.2027 25.7457C44.2027 27.5599 45.6823 29.0473 47.5093 29.0473H57.6026V26.7279H47.5093C46.9658 26.7279 46.5203 26.2833 46.5203 25.7457Z" fill="white"/>
<path d="M110.431 15.4042H120.032V13.0396H110.431C108.243 13.0396 106.455 14.8273 106.455 17.0221V25.0187C106.455 27.2126 108.23 28.9875 110.424 28.9875H120.032V26.6229H110.424C109.534 26.6229 108.819 25.9087 108.819 25.0246V22.2078H120.032V19.8441H108.819V17.0221C108.819 16.1312 109.547 15.4042 110.431 15.4042Z" fill="white"/>
</g>
<defs>
<clipPath id="clip0">
<rect width="120" height="60" fill="white"/>
</clipPath>
</defs>
</svg>
